<svg viewBox="0 0 310.61 281.75" xmlns="http://www.w3.org/2000/svg"><path d="m20.47 271.92c-1.6-6.97 2.82-15.44 9.97-17.4 12.8-3.61 24.89 6.78 37.67 6.31 15.88-.37 21.55-17.47 30.42-27.85 24.86-29.76 43.09-15.99 55.66-29.43 6.11-6.89 6.02-17.7 11.34-25.03 3.56-5.2 10.53-8.05 16.55-5.64 4.98 1.84 8.18 6.54 11.3 10.68 1.82 2.38 3.85 4.63 6.2 5.91 4.23 2.49 9.06.6 10.31-3.89 3.96-14.02-15.89-22.54-12.55-34.08 1.29-3.43 4.96-4.99 9.06-4.91 6.05.12 11.44 3.32 17.61 4.46 28.76 4.66 13.73-34.72 14.62-50.46.19-27.14 15.28-45.38 34.38-62.66 5.49-5.16 13.69-10.19 21.22-7.22 5.82 2.17 8.96 9.87 10.6 16.13 5.62 22.06 9.09 44.93 1.11 66.37-20.23 50.47-56.78 95.13-102.65 123.97-46.23 27.85-101.79 42.33-155.42 44.54-9.31.01-24.05 1.27-27.35-9.61l-.04-.17z" fill="#fff"/><g stroke="#000" stroke-miterlimit="10" stroke-width="6"><circle cx="109.95" cy="235.27" fill="#fff" r="15.98"/><circle cx="159.65" cy="148.41" fill="none" r="15.53"/><circle cx="205.67" cy="113.68" fill="none" r="11.29"/><circle cx="200.45" cy="216.88" fill="#fff" r="12.28"/><circle cx="69.15" cy="187.8" fill="none" r="11.44"/><circle cx="103.6" cy="205.59" fill="#fff" r="6.35"/><circle cx="64.07" cy="232.27" fill="#fff" r="6.35"/><circle cx="153.29" cy="219.28" fill="#fff" r="6.35"/><circle cx="261.43" cy="128.79" fill="#fff" r="10.02"/><circle cx="222.19" cy="140.93" fill="#fff" r="5.22"/><circle cx="236.73" cy="187.8" fill="#fff" r="5.22"/><circle cx="292.7" cy="61.47" fill="#fff" r="5.22"/><circle cx="252.54" cy="61.47" fill="none" r="15.81"/><circle cx="292.7" cy="88.64" fill="#fff" r="11.36"/><path d="m13.03 265.59c-10.1-3.27-13.54-18.51-5.82-25.79 5.26-4.97 13.31-5.68 19.21-9.86s8.92-11.25 11.38-18.04c4.51-12.46 8.08-25.25 10.69-38.24.84-4.17 1.59-8.42 3.48-12.24 4.88-9.87 17.2-14.91 27.98-12.64s19.6 10.92 23.56 21.2c2.26 5.87 3.12 12.28 6.03 17.87s8.87 10.38 15.03 9.11c6.49-1.34 10.06-8.97 9.26-15.55s-4.75-12.3-8.56-17.73-7.72-11.18-8.43-17.78c-.99-9.28 4.93-18.37 12.98-23.09s17.82-5.68 27.12-4.9c6.21.52 13.48 1.4 17.73-3.15 5.15-5.52 1.88-14.38 2.65-21.89 1.32-12.95 15.25-21.16 28.21-22.37 2.29-.21 4.65-.29 6.78-1.16 6.09-2.48 8.01-10.2 7.84-16.78s-1.52-13.51 1.23-19.49c4.42-9.63 17.06-12.01 27.62-11.13s21.63 3.68 31.42-.37" fill="none"/><circle cx="288.05" cy="19.59" fill="#fff" r="16.59"/><circle cx="18.98" cy="262.62" fill="#fff" r="15.98"/><circle cx="205.67" cy="67.25" fill="#fff" r="10.02"/></g></svg>